{
    "asset" : {
        "generator" : "Khronos glTF Blender I/O v1.5.17",
        "version" : "2.0"
    },
    "scene" : 0,
    "scenes" : [
        {
            "name" : "Scene",
            "nodes" : [
                0,
                1,
                2,
                3
            ]
        }
    ],
    "nodes" : [
        {
            "mesh" : 0,
            "name" : "Orchid",
            "translation" : [
                0,
                0.008971013128757477,
                0
            ]
        },
        {
            "mesh" : 1,
            "name" : "Areca palm"
        },
        {
            "name" : "Sun",
            "rotation" : [
                -0.562262237071991,
                0.12280590832233429,
                0.08489248156547546,
                0.813371479511261
            ],
            "translation" : [
                0,
                8.334918975830078,
                -19.229005813598633
            ]
        },
        {
            "name" : "Camera",
            "rotation" : [
                0,
                0.7456403374671936,
                -0.6663486361503601,
                -2.0316331017511402e-07
            ],
            "translation" : [
                0,
                4.541969299316406,
                -17.62063217163086
            ]
        }
    ],
    "materials" : [
        {
            "doubleSided" : true,
            "name" : "Black flower pot",
            "pbrMetallicRoughness" : {
                "baseColorFactor" : [
                    0.011612245813012123,
                    0.011612245813012123,
                    0.011612245813012123,
                    1
                ],
                "metallicFactor" : 0,
                "roughnessFactor" : 0
            }
        },
        {
            "doubleSided" : true,
            "name" : "Soil 1",
            "pbrMetallicRoughness" : {
                "metallicFactor" : 0
            }
        },
        {
            "doubleSided" : true,
            "name" : "Orchid",
            "pbrMetallicRoughness" : {}
        },
        {
            "doubleSided" : true,
            "name" : "Orchid.001",
            "pbrMetallicRoughness" : {}
        },
        {
            "doubleSided" : true,
            "name" : "Orchid.002",
            "pbrMetallicRoughness" : {}
        },
        {
            "doubleSided" : true,
            "name" : "Leaves",
            "pbrMetallicRoughness" : {
                "metallicFactor" : 0
            }
        },
        {
            "doubleSided" : true,
            "name" : "metal",
            "pbrMetallicRoughness" : {
                "baseColorFactor" : [
                    0.34191441535949707,
                    0.34191441535949707,
                    0.34191441535949707,
                    1
                ],
                "metallicFactor" : 0.20000000298023224,
                "roughnessFactor" : 0.10000000149011612
            }
        },
        {
            "doubleSided" : true,
            "name" : "Soil2",
            "pbrMetallicRoughness" : {
                "metallicFactor" : 0
            }
        },
        {
            "doubleSided" : true,
            "name" : "Areca palm",
            "pbrMetallicRoughness" : {}
        },
        {
            "doubleSided" : true,
            "name" : "Areca palm2",
            "pbrMetallicRoughness" : {}
        }
    ],
    "meshes" : [
        {
            "name" : "Cube.2068",
            "primitives" : [
                {
                    "attributes" : {
                        "POSITION" : 0,
                        "NORMAL" : 1,
                        "TEXCOORD_0" : 2
                    },
                    "indices" : 3,
                    "material" : 0
                },
                {
                    "attributes" : {
                        "POSITION" : 4,
                        "NORMAL" : 5,
                        "TEXCOORD_0" : 6
                    },
                    "indices" : 7,
                    "material" : 1
                },
                {
                    "attributes" : {
                        "POSITION" : 8,
                        "NORMAL" : 9,
                        "TEXCOORD_0" : 10
                    },
                    "indices" : 11,
                    "material" : 2
                },
                {
                    "attributes" : {
                        "POSITION" : 12,
                        "NORMAL" : 13,
                        "TEXCOORD_0" : 14
                    },
                    "indices" : 15,
                    "material" : 3
                },
                {
                    "attributes" : {
                        "POSITION" : 16,
                        "NORMAL" : 17,
                        "TEXCOORD_0" : 18
                    },
                    "indices" : 19,
                    "material" : 4
                },
                {
                    "attributes" : {
                        "POSITION" : 20,
                        "NORMAL" : 21,
                        "TEXCOORD_0" : 22
                    },
                    "indices" : 23,
                    "material" : 5
                }
            ]
        },
        {
            "name" : "Cylinder.2601",
            "primitives" : [
                {
                    "attributes" : {
                        "POSITION" : 24,
                        "NORMAL" : 25,
                        "TEXCOORD_0" : 26
                    },
                    "indices" : 27,
                    "material" : 6
                },
                {
                    "attributes" : {
                        "POSITION" : 28,
                        "NORMAL" : 29,
                        "TEXCOORD_0" : 30
                    },
                    "indices" : 31,
                    "material" : 7
                },
                {
                    "attributes" : {
                        "POSITION" : 32,
                        "NORMAL" : 33,
                        "TEXCOORD_0" : 34
                    },
                    "indices" : 35,
                    "material" : 8
                },
                {
                    "attributes" : {
                        "POSITION" : 36,
                        "NORMAL" : 37,
                        "TEXCOORD_0" : 38
                    },
                    "indices" : 39,
                    "material" : 9
                }
            ]
        }
    ],
    "accessors" : [
        {
            "bufferView" : 0,
            "componentType" : 5126,
            "count" : 52,
            "max" : [
                0.5099279880523682,
                2.2690796852111816,
                0.5099278688430786
            ],
            "min" : [
                -0.5099277496337891,
                0,
                -0.5099278688430786
            ],
            "type" : "VEC3"
        },
        {
            "bufferView" : 1,
            "componentType" : 5126,
            "count" : 52,
            "type" : "VEC3"
        },
        {
            "bufferView" : 2,
            "componentType" : 5126,
            "count" : 52,
            "type" : "VEC2"
        },
        {
            "bufferView" : 3,
            "componentType" : 5123,
            "count" : 78,
            "type" : "SCALAR"
        },
        {
            "bufferView" : 4,
            "componentType" : 5126,
            "count" : 4,
            "max" : [
                0.46522057056427,
                2.037566900253296,
                0.46522045135498047
            ],
            "min" : [
                -0.4652203321456909,
                2.037566900253296,
                -0.46522045135498047
            ],
            "type" : "VEC3"
        },
        {
            "bufferView" : 5,
            "componentType" : 5126,
            "count" : 4,
            "type" : "VEC3"
        },
        {
            "bufferView" : 6,
            "componentType" : 5126,
            "count" : 4,
            "type" : "VEC2"
        },
        {
            "bufferView" : 7,
            "componentType" : 5123,
            "count" : 6,
            "type" : "SCALAR"
        },
        {
            "bufferView" : 8,
            "componentType" : 5126,
            "count" : 8880,
            "max" : [
                0.46390554308891296,
                3.4175586700439453,
                0.4558328688144684
            ],
            "min" : [
                -0.682915985584259,
                2.7733426094055176,
                -0.48409608006477356
            ],
            "type" : "VEC3"
        },
        {
            "bufferView" : 9,
            "componentType" : 5126,
            "count" : 8880,
            "type" : "VEC3"
        },
        {
            "bufferView" : 10,
            "componentType" : 5126,
            "count" : 8880,
            "type" : "VEC2"
        },
        {
            "bufferView" : 11,
            "componentType" : 5123,
            "count" : 13320,
            "type" : "SCALAR"
        },
        {
            "bufferView" : 12,
            "componentType" : 5126,
            "count" : 14720,
            "max" : [
                0.5114167928695679,
                3.5252068042755127,
                0.5583310723304749
            ],
            "min" : [
                -0.7453975677490234,
                2.671154499053955,
                -0.576014518737793
            ],
            "type" : "VEC3"
        },
        {
            "bufferView" : 13,
            "componentType" : 5126,
            "count" : 14720,
            "type" : "VEC3"
        },
        {
            "bufferView" : 14,
            "componentType" : 5126,
            "count" : 14720,
            "type" : "VEC2"
        },
        {
            "bufferView" : 15,
            "componentType" : 5123,
            "count" : 22080,
            "type" : "SCALAR"
        },
        {
            "bufferView" : 16,
            "componentType" : 5126,
            "count" : 2638,
            "max" : [
                0.5483254194259644,
                4.565606117248535,
                0.5654550790786743
            ],
            "min" : [
                -0.6454012989997864,
                2.0375657081604004,
                -0.4334649443626404
            ],
            "type" : "VEC3"
        },
        {
            "bufferView" : 17,
            "componentType" : 5126,
            "count" : 2638,
            "type" : "VEC3"
        },
        {
            "bufferView" : 18,
            "componentType" : 5126,
            "count" : 2638,
            "type" : "VEC2"
        },
        {
            "bufferView" : 19,
            "componentType" : 5123,
            "count" : 9534,
            "type" : "SCALAR"
        },
        {
            "bufferView" : 20,
            "componentType" : 5126,
            "count" : 3232,
            "max" : [
                0.963872492313385,
                2.9046695232391357,
                0.785376250743866
            ],
            "min" : [
                -1.0515949726104736,
                2.0375664234161377,
                -0.9644933938980103
            ],
            "type" : "VEC3"
        },
        {
            "bufferView" : 21,
            "componentType" : 5126,
            "count" : 3232,
            "type" : "VEC3"
        },
        {
            "bufferView" : 22,
            "componentType" : 5126,
            "count" : 3232,
            "type" : "VEC2"
        },
        {
            "bufferView" : 23,
            "componentType" : 5123,
            "count" : 4848,
            "type" : "SCALAR"
        },
        {
            "bufferView" : 24,
            "componentType" : 5126,
            "count" : 250,
            "max" : [
                0.7222712635993958,
                0.9345333576202393,
                0.7222715020179749
            ],
            "min" : [
                -0.7222714424133301,
                -1.3665989229139086e-08,
                -0.722271203994751
            ],
            "type" : "VEC3"
        },
        {
            "bufferView" : 25,
            "componentType" : 5126,
            "count" : 250,
            "type" : "VEC3"
        },
        {
            "bufferView" : 26,
            "componentType" : 5126,
            "count" : 250,
            "type" : "VEC2"
        },
        {
            "bufferView" : 27,
            "componentType" : 5123,
            "count" : 666,
            "type" : "SCALAR"
        },
        {
            "bufferView" : 28,
            "componentType" : 5126,
            "count" : 32,
            "max" : [
                0.7183790802955627,
                0.8979741334915161,
                0.7183793187141418
            ],
            "min" : [
                -0.7183791995048523,
                0.8979741334915161,
                -0.718379020690918
            ],
            "type" : "VEC3"
        },
        {
            "bufferView" : 29,
            "componentType" : 5126,
            "count" : 32,
            "type" : "VEC3"
        },
        {
            "bufferView" : 30,
            "componentType" : 5126,
            "count" : 32,
            "type" : "VEC2"
        },
        {
            "bufferView" : 31,
            "componentType" : 5123,
            "count" : 90,
            "type" : "SCALAR"
        },
        {
            "bufferView" : 32,
            "componentType" : 5126,
            "count" : 4800,
            "max" : [
                2.4641435146331787,
                6.622598648071289,
                1.5281895399093628
            ],
            "min" : [
                -2.035914897918701,
                0.8975028991699219,
                -1.94544517993927
            ],
            "type" : "VEC3"
        },
        {
            "bufferView" : 33,
            "componentType" : 5126,
            "count" : 4800,
            "type" : "VEC3"
        },
        {
            "bufferView" : 34,
            "componentType" : 5126,
            "count" : 4800,
            "type" : "VEC2"
        },
        {
            "bufferView" : 35,
            "componentType" : 5123,
            "count" : 7272,
            "type" : "SCALAR"
        },
        {
            "bufferView" : 36,
            "componentType" : 5126,
            "count" : 12944,
            "max" : [
                2.896233081817627,
                6.732818603515625,
                2.3131422996520996
            ],
            "min" : [
                -2.340036392211914,
                1.501529335975647,
                -2.4361488819122314
            ],
            "type" : "VEC3"
        },
        {
            "bufferView" : 37,
            "componentType" : 5126,
            "count" : 12944,
            "type" : "VEC3"
        },
        {
            "bufferView" : 38,
            "componentType" : 5126,
            "count" : 12944,
            "type" : "VEC2"
        },
        {
            "bufferView" : 39,
            "componentType" : 5123,
            "count" : 19416,
            "type" : "SCALAR"
        }
    ],
    "bufferViews" : [
        {
            "buffer" : 0,
            "byteLength" : 624,
            "byteOffset" : 0
        },
        {
            "buffer" : 0,
            "byteLength" : 624,
            "byteOffset" : 624
        },
        {
            "buffer" : 0,
            "byteLength" : 416,
            "byteOffset" : 1248
        },
        {
            "buffer" : 0,
            "byteLength" : 156,
            "byteOffset" : 1664
        },
        {
            "buffer" : 0,
            "byteLength" : 48,
            "byteOffset" : 1820
        },
        {
            "buffer" : 0,
            "byteLength" : 48,
            "byteOffset" : 1868
        },
        {
            "buffer" : 0,
            "byteLength" : 32,
            "byteOffset" : 1916
        },
        {
            "buffer" : 0,
            "byteLength" : 12,
            "byteOffset" : 1948
        },
        {
            "buffer" : 0,
            "byteLength" : 106560,
            "byteOffset" : 1960
        },
        {
            "buffer" : 0,
            "byteLength" : 106560,
            "byteOffset" : 108520
        },
        {
            "buffer" : 0,
            "byteLength" : 71040,
            "byteOffset" : 215080
        },
        {
            "buffer" : 0,
            "byteLength" : 26640,
            "byteOffset" : 286120
        },
        {
            "buffer" : 0,
            "byteLength" : 176640,
            "byteOffset" : 312760
        },
        {
            "buffer" : 0,
            "byteLength" : 176640,
            "byteOffset" : 489400
        },
        {
            "buffer" : 0,
            "byteLength" : 117760,
            "byteOffset" : 666040
        },
        {
            "buffer" : 0,
            "byteLength" : 44160,
            "byteOffset" : 783800
        },
        {
            "buffer" : 0,
            "byteLength" : 31656,
            "byteOffset" : 827960
        },
        {
            "buffer" : 0,
            "byteLength" : 31656,
            "byteOffset" : 859616
        },
        {
            "buffer" : 0,
            "byteLength" : 21104,
            "byteOffset" : 891272
        },
        {
            "buffer" : 0,
            "byteLength" : 19068,
            "byteOffset" : 912376
        },
        {
            "buffer" : 0,
            "byteLength" : 38784,
            "byteOffset" : 931444
        },
        {
            "buffer" : 0,
            "byteLength" : 38784,
            "byteOffset" : 970228
        },
        {
            "buffer" : 0,
            "byteLength" : 25856,
            "byteOffset" : 1009012
        },
        {
            "buffer" : 0,
            "byteLength" : 9696,
            "byteOffset" : 1034868
        },
        {
            "buffer" : 0,
            "byteLength" : 3000,
            "byteOffset" : 1044564
        },
        {
            "buffer" : 0,
            "byteLength" : 3000,
            "byteOffset" : 1047564
        },
        {
            "buffer" : 0,
            "byteLength" : 2000,
            "byteOffset" : 1050564
        },
        {
            "buffer" : 0,
            "byteLength" : 1332,
            "byteOffset" : 1052564
        },
        {
            "buffer" : 0,
            "byteLength" : 384,
            "byteOffset" : 1053896
        },
        {
            "buffer" : 0,
            "byteLength" : 384,
            "byteOffset" : 1054280
        },
        {
            "buffer" : 0,
            "byteLength" : 256,
            "byteOffset" : 1054664
        },
        {
            "buffer" : 0,
            "byteLength" : 180,
            "byteOffset" : 1054920
        },
        {
            "buffer" : 0,
            "byteLength" : 57600,
            "byteOffset" : 1055100
        },
        {
            "buffer" : 0,
            "byteLength" : 57600,
            "byteOffset" : 1112700
        },
        {
            "buffer" : 0,
            "byteLength" : 38400,
            "byteOffset" : 1170300
        },
        {
            "buffer" : 0,
            "byteLength" : 14544,
            "byteOffset" : 1208700
        },
        {
            "buffer" : 0,
            "byteLength" : 155328,
            "byteOffset" : 1223244
        },
        {
            "buffer" : 0,
            "byteLength" : 155328,
            "byteOffset" : 1378572
        },
        {
            "buffer" : 0,
            "byteLength" : 103552,
            "byteOffset" : 1533900
        },
        {
            "buffer" : 0,
            "byteLength" : 38832,
            "byteOffset" : 1637452
        }
    ],
    "buffers" : [
        {
            "byteLength" : 1676284,
            "uri" : "data:application/octet-stream;base64,"
        }
    ]
}
